<?xml version="1.0" encoding="UTF-8"?>
<svg preserveAspectRatio="none" version="1.1" viewBox="0 0 1440 560" xmlns="http://www.w3.org/2000/svg">
<g fill="none" mask="url(#a)">
<path d="m1268.2 389.12h4.62v4.62h-4.62z" fill="rgba(254, 145, 16, 1)"/>
<path d="m96.83 366.28a5.49 5.49 0 1 0 10.78 2.09z" fill="rgba(28, 83, 142, 1)"/>
<path d="m102.46 515.04h18.47v18.47h-18.47z" stroke="rgba(28, 83, 142, 1)"/>
<path d="m1067.8 245.86h13.46v13.46h-13.46z" stroke="#e73635"/>
<path d="m31.17 203.12h34.2v24.75h-34.2z" fill="rgba(254, 145, 16, 1)"/>
<path d="m478.81 132.71h35.85v38.08h-35.85z" fill="rgba(254, 145, 16, 1)"/>
<path d="m363.94 395.95a47.98 47.98 0 1 0 95.96 0 47.98 47.98 0 1 0-95.96 0z" fill="rgba(28, 83, 142, 1)"/>
<path d="m919.97 66.05h13.3v41.1h-13.3z" fill="#e73635"/>
<path d="m432.02 477.52a3.25 3.25 0 1 0-6.38-1.24z" stroke="rgba(254, 145, 16, 1)"/>
<path d="m1042.2 555.01a19.26 19.26 0 1 0 38.52 0 19.26 19.26 0 1 0-38.52 0z" stroke="#e73635"/>
<path d="m863.07 176.92h36.49v35.34h-36.49z" stroke="#e73635"/>
<path d="m692.07 396.52h11.79v44.29h-11.79z" fill="#e73635"/>
<path d="m1038.6 72.83a7.4 7.4 0 1 0 10.94 9.96z" stroke="#e73635"/>
<path d="m35.69 368.6h21.76v21.76h-21.76z" stroke="rgba(28, 83, 142, 1)"/>
<path d="m917.75 532.27h55.94v55.94h-55.94z" stroke="rgba(254, 145, 16, 1)"/>
<path d="m596.77 434.03a55.22 55.22 0 1 0 99.74 47.44z" fill="rgba(254, 145, 16, 1)"/>
<path d="m430.6 186.84h37.69v37.69h-37.69z" fill="rgba(28, 83, 142, 1)"/>
<path d="m344.35 101.76h15.81v12.18h-15.81z" fill="#e73635"/>
<path d="m1439.9 144.96h26.87v11.06h-26.87z" fill="rgba(28, 83, 142, 1)"/>
<path d="m1139.5 217.28a39.82 39.82 0 1 0 79.64 0 39.82 39.82 0 1 0-79.64 0z" stroke="rgba(254, 145, 16, 1)"/>
<path d="m112.11 236.11a49.11 49.11 0 1 0 98.22 0 49.11 49.11 0 1 0-98.22 0z" stroke="#e73635"/>
<path d="m611.59 389.03h23.78v23.78h-23.78z" stroke="rgba(254, 145, 16, 1)"/>
<path d="m877.26 385.84h43.14v43.14h-43.14z" fill="rgba(28, 83, 142, 1)"/>
<path d="m260.05 439.89h52.84v52.84h-52.84z" fill="rgba(254, 145, 16, 1)"/>
<path d="m1031.2 336.2a14.14 14.14 0 1 0 28.28 0 14.14 14.14 0 1 0-28.28 0z" fill="#e73635"/>
<path d="m559.86 443.87h10.14v4.71h-10.14z" stroke="rgba(28, 83, 142, 1)"/>
<path d="m241.63 460.44h10.85v10.85h-10.85z" fill="rgba(28, 83, 142, 1)"/>
<path d="m617.08 544.81h32.97v32.97h-32.97z" stroke="rgba(28, 83, 142, 1)"/>
<path d="m805.76 92.76h25.65v28.99h-25.65z" stroke="rgba(28, 83, 142, 1)"/>
<path d="m156.79 37.89h18.14v1.79h-18.14z" fill="#e73635"/>
<path d="m626.17 70.9h12.85v12.85h-12.85z" fill="rgba(28, 83, 142, 1)"/>
<path d="m164.51 54.95a25.25 25.25 0 1 0 50.5 0 25.25 25.25 0 1 0-50.5 0z" fill="rgba(28, 83, 142, 1)"/>
<path d="m1000.17 203.12h34.2v24.75h-34.2z" fill="rgba(254, 145, 16, 1)"/>
<path d="m1231.17 103.12h34.2v24.75h-34.2z" fill="rgba(254, 145, 16, 1)"/>
<path d="m1080.94 465.95a47.98 47.98 0 1 0 95.96 0 47.98 47.98 0 1 0-95.96 0z" fill="rgba(28, 83, 142, 1)"/>
<path d="m1332.02 477.52a3.25 3.25 0 1 0-6.38-1.24z" stroke="rgba(254, 145, 16, 1)"/>
<path d="m1142.2 355.01a19.26 19.26 0 1 0 38.52 0 19.26 19.26 0 1 0-38.52 0z" stroke="#e73635"/>
<path d="m1217.75 462.27h55.94v55.94h-55.94z" stroke="rgba(254, 145, 16, 1)"/>
<path d="m1296.77 234.03a55.22 55.22 0 1 0 99.74 47.44z" fill="rgba(254, 145, 16, 1)"/>
<path d="m1380.6 386.84h37.69v37.69h-37.69z" fill="rgba(28, 83, 142, 1)"/>
<path d="m1344.35 101.76h15.81v12.18h-15.81z" fill="#e73635"/>
<path d="m1311.59 189.03h23.78v23.78h-23.78z" stroke="rgba(254, 145, 16, 1)"/>
<path d="m1381.2 186.2a14.14 14.14 0 1 0 28.28 0 14.14 14.14 0 1 0-28.28 0z" fill="#e73635"/>
<path d="m331.2 296.2a14.14 14.14 0 1 0 28.28 0 14.14 14.14 0 1 0-28.28 0z" fill="#e73635"/>
<path d="m359.86 243.87h10.14v4.71h-10.14z" stroke="rgba(28, 83, 142, 1)"/>
<path d="m277.08 180.81h32.97v32.97h-32.97z" stroke="rgba(28, 83, 142, 1)"/>
</g>
<defs>
<mask id="a">
<rect width="1440" height="560" fill="#fff"/>
</mask>
</defs>
</svg>
