<svg xmlns="http://www.w3.org/2000/svg" version="1.1" xmlns:xlink="http://www.w3.org/1999/xlink" xmlns:svgjs="http://svgjs.dev/svgjs" width="1440" height="560" preserveAspectRatio="none" viewBox="0 0 1440 560"><g mask="url(&quot;#SvgjsMask1051&quot;)" fill="none"><path d="M1268.21 389.12L1272.83 389.12L1272.83 393.74L1268.21 393.74z" fill="rgba(254, 145, 16, 1)"></path><path d="M96.83 366.28a5.49 5.49 0 1 0 10.78 2.09z" fill="rgba(28, 83, 142, 1)"></path><path d="M102.46 515.04L120.93 515.04L120.93 533.51L102.46 533.51z" stroke="rgba(28, 83, 142, 1)"></path><path d="M1067.82 245.86L1081.28 245.86L1081.28 259.32L1067.82 259.32z" stroke="#e73635"></path><path d="M31.17 203.12L65.37 203.12L65.37 227.87L31.17 227.87z" fill="rgba(254, 145, 16, 1)"></path><path d="M478.81 132.71L514.66 132.71L514.66 170.79L478.81 170.79z" fill="rgba(254, 145, 16, 1)"></path><path d="M363.94 395.95 a47.98 47.98 0 1 0 95.96 0 a47.98 47.98 0 1 0 -95.96 0z" fill="rgba(28, 83, 142, 1)"></path><path d="M919.97 66.05L933.27 66.05L933.27 107.15L919.97 107.15z" fill="#e73635"></path><path d="M432.02 477.52a3.25 3.25 0 1 0-6.38-1.24z" stroke="rgba(254, 145, 16, 1)"></path><path d="M1042.23 555.01 a19.26 19.26 0 1 0 38.52 0 a19.26 19.26 0 1 0 -38.52 0z" stroke="#e73635"></path><path d="M863.07 176.92L899.56 176.92L899.56 212.26L863.07 212.26z" stroke="#e73635"></path><path d="M692.07 396.52L703.86 396.52L703.86 440.81L692.07 440.81z" fill="#e73635"></path><path d="M1038.62 72.83a7.4 7.4 0 1 0 10.94 9.96z" stroke="#e73635"></path><path d="M35.69 368.6L57.45 368.6L57.45 390.36L35.69 390.36z" stroke="rgba(28, 83, 142, 1)"></path><path d="M917.75 532.27L973.69 532.27L973.69 588.21L917.75 588.21z" stroke="rgba(254, 145, 16, 1)"></path><path d="M596.77 434.03a55.22 55.22 0 1 0 99.74 47.44z" fill="rgba(254, 145, 16, 1)"></path><path d="M430.6 186.84L468.29 186.84L468.29 224.53L430.6 224.53z" fill="rgba(28, 83, 142, 1)"></path><path d="M344.35 101.76L360.16 101.76L360.16 113.94L344.35 113.94z" fill="#e73635"></path><path d="M1439.89 144.96L1466.76 144.96L1466.76 156.02L1439.89 156.02z" fill="rgba(28, 83, 142, 1)"></path><path d="M1139.48 217.28 a39.82 39.82 0 1 0 79.64 0 a39.82 39.82 0 1 0 -79.64 0z" stroke="rgba(254, 145, 16, 1)"></path><path d="M112.11 236.11 a49.11 49.11 0 1 0 98.22 0 a49.11 49.11 0 1 0 -98.22 0z" stroke="#e73635"></path><path d="M611.59 389.03L635.37 389.03L635.37 412.81L611.59 412.81z" stroke="rgba(254, 145, 16, 1)"></path><path d="M877.26 385.84L920.4 385.84L920.4 428.98L877.26 428.98z" fill="rgba(28, 83, 142, 1)"></path><path d="M260.05 439.89L312.89 439.89L312.89 492.73L260.05 492.73z" fill="rgba(254, 145, 16, 1)"></path><path d="M1031.21 336.2 a14.14 14.14 0 1 0 28.28 0 a14.14 14.14 0 1 0 -28.28 0z" fill="#e73635"></path><path d="M559.86 443.87L570 443.87L570 448.58L559.86 448.58z" stroke="rgba(28, 83, 142, 1)"></path><path d="M241.63 460.44L252.48 460.44L252.48 471.29L241.63 471.29z" fill="rgba(28, 83, 142, 1)"></path><path d="M617.08 544.81L650.05 544.81L650.05 577.78L617.08 577.78z" stroke="rgba(28, 83, 142, 1)"></path><path d="M1389.3 404.8a55.19 55.19 0 1 0 85.99 69.2z" stroke="#e73635"></path><path d="M805.76 92.76L831.41 92.76L831.41 121.75L805.76 121.75z" stroke="rgba(28, 83, 142, 1)"></path><path d="M156.79 37.89L174.93 37.89L174.93 39.68L156.79 39.68z" fill="#e73635"></path><path d="M626.17 70.9L639.02 70.9L639.02 83.75L626.17 83.75z" fill="rgba(28, 83, 142, 1)"></path><path d="M164.51 54.95 a25.25 25.25 0 1 0 50.5 0 a25.25 25.25 0 1 0 -50.5 0z" fill="rgba(28, 83, 142, 1)"></path></g><defs><mask id="SvgjsMask1051"><rect width="1440" height="560" fill="#ffffff"></rect></mask></defs></svg>