<svg width="1440" height="860" xmlns="http://www.w3.org/2000/svg" version="1.1" preserveAspectRatio="none">
 <defs>
  <mask id="a">
   <rect id="svg_1" fill="#fff" height="560" width="1440"/>
  </mask>
 </defs>
 <g>
  <title>Layer 1</title>
  <path id="svg_3" fill="rgba(254, 145, 16, 1)" d="m1268.38997,540.41l4.62,0l0,4.62l-4.62,0l0,-4.62z" stroke="null"/>
  <path id="svg_4" fill="rgba(28, 83, 142, 1)" d="m97.01997,517.57a5.49,5.49 0 1 0 10.78,2.09l-10.78,-2.09z" stroke="null"/>
  <path fill="white" id="svg_5" d="m102.64997,666.33l18.47,0l0,18.47l-18.47,0l0,-18.47z" stroke="rgba(28, 83, 142, 1)"/>
  <path fill="white" id="svg_6" d="m1067.98997,397.15l13.46,0l0,13.46l-13.46,0l0,-13.46z" stroke="#e73635"/>
  <path id="svg_7" fill="rgba(254, 145, 16, 1)" d="m31.35997,354.41l34.2,0l0,24.75l-34.2,0l0,-24.75z" stroke="null"/>
  <path id="svg_8" fill="rgba(254, 145, 16, 1)" d="m478.99997,284l35.85,0l0,38.08l-35.85,0l0,-38.08z" stroke="null"/>
  <path id="svg_9" fill="rgba(28, 83, 142, 1)" d="m364.12997,547.24a47.98,47.98 0 1 0 95.96,0a47.98,47.98 0 1 0 -95.96,0z" stroke="null"/>
  <path id="svg_10" fill="#e73635" d="m921.60927,215.89071l13.3,0l0,41.1l-13.3,0l0,-41.1z" stroke="null"/>
  <path fill="white" id="svg_11" d="m432.20997,628.81a3.25,3.25 0 1 0 -6.38,-1.24l6.38,1.24z" stroke="rgba(254, 145, 16, 1)"/>
  <path fill="white" id="svg_12" d="m1042.38997,706.3a19.26,19.26 0 1 0 38.52,0a19.26,19.26 0 1 0 -38.52,0z" stroke="#e73635"/>
  <path fill="white" id="svg_13" d="m861.81068,328.21l36.49,0l0,35.34l-36.49,0l0,-35.34z" stroke="#e73635"/>
  <path id="svg_14" fill="#e73635" d="m692.25997,547.81l11.79,0l0,44.29l-11.79,0l0,-44.29z" stroke="null"/>
  <path fill="white" id="svg_15" d="m1038.78997,224.12a7.4,7.4 0 1 0 10.94,9.96l-10.94,-9.96z" stroke="#e73635"/>
  <path fill="white" id="svg_16" d="m35.41486,519.89l21.76,0l0,21.76l-21.76,0l0,-21.76z" stroke="rgba(28, 83, 142, 1)"/>
  <path fill="white" id="svg_17" d="m917.93997,683.56l55.94,0l0,55.94l-55.94,0l0,-55.94z" stroke="rgba(254, 145, 16, 1)"/>
  <path id="svg_18" fill="rgba(254, 145, 16, 1)" d="m596.95997,585.32a55.22,55.22 0 1 0 99.74,47.44l-99.74,-47.44z" stroke="null"/>
  <path id="svg_19" fill="rgba(28, 83, 142, 1)" d="m430.78997,338.13l37.69,0l0,37.69l-37.69,0l0,-37.69z" stroke="null"/>
  <path id="svg_20" fill="#e73635" d="m344.53997,253.05l15.81,0l0,12.18l-15.81,0l0,-12.18z" stroke="null"/>
  <path id="svg_21" fill="rgba(28, 83, 142, 1)" d="m1439.9,291.96l26.87,0l0,11.06l-26.87,0l0,-11.06z" stroke="null"/>
  <path fill="white" id="svg_22" d="m1139.68997,368.93364a39.82,39.82 0 1 0 79.64,0a39.82,39.82 0 1 0 -79.64,0z" stroke="rgba(254, 145, 16, 1)"/>
  <path fill="white" id="svg_23" d="m112.29997,387.4a49.11,49.11 0 1 0 98.22,0a49.11,49.11 0 1 0 -98.22,0z" stroke="rgba(28, 83, 142, 1)"/>
  <path fill="white" id="svg_24" d="m611.77997,540.32l23.78,0l0,23.78l-23.78,0l0,-23.78z" stroke="rgba(254, 145, 16, 1)"/>
  <path id="svg_25" fill="rgba(28, 83, 142, 1)" d="m877.44997,537.13l43.14,0l0,43.14l-43.14,0l0,-43.14z" stroke="null"/>
  <path id="svg_26" fill="rgba(254, 145, 16, 1)" d="m260.23997,591.18l52.84,0l0,52.84l-52.84,0l0,-52.84z" stroke="null"/>
  <path id="svg_27" fill="#e73635" d="m1031.38997,487.49a14.14,14.14 0 1 0 28.28,0a14.14,14.14 0 1 0 -28.28,0z" stroke="null"/>
  <path fill="white" id="svg_28" d="m560.04997,595.16l10.14,0l0,4.71l-10.14,0l0,-4.71z" stroke="rgba(28, 83, 142, 1)"/>
  <path id="svg_29" fill="rgba(28, 83, 142, 1)" d="m241.81997,611.73l10.85,0l0,10.85l-10.85,0l0,-10.85z" stroke="null"/>
  <path fill="white" id="svg_30" d="m617.26997,696.1l32.97,0l0,32.97l-32.97,0l0,-32.97z" stroke="rgba(28, 83, 142, 1)"/>
  <path fill="white" id="svg_31" d="m805.94997,244.05l25.65,0l0,28.99l-25.65,0l0,-28.99z" stroke="rgba(28, 83, 142, 1)"/>
  <path id="svg_32" fill="#e73635" d="m156.97997,189.18l18.14,0l0,1.79l-18.14,0l0,-1.79z" stroke="null"/>
  <path id="svg_33" fill="rgba(28, 83, 142, 1)" d="m626.35997,222.19l12.85,0l0,12.85l-12.85,0l0,-12.85z" stroke="null"/>
  <path id="svg_34" fill="rgba(28, 83, 142, 1)" d="m164.69997,206.24a25.25,25.25 0 1 0 50.5,0a25.25,25.25 0 1 0 -50.5,0z" stroke="null"/>
  <path id="svg_35" fill="rgba(254, 145, 16, 1)" d="m1000.35997,354.41l34.2,0l0,24.75l-34.2,0l0,-24.75z" stroke="null"/>
  <path id="svg_36" fill="rgba(254, 145, 16, 1)" d="m1231.35997,254.41l34.2,0l0,24.75l-34.2,0l0,-24.75z" stroke="null"/>
  <path id="svg_37" fill="rgba(28, 83, 142, 1)" d="m1081.12997,617.24a47.98,47.98 0 1 0 95.96,0a47.98,47.98 0 1 0 -95.96,0z" stroke="null"/>
  <path fill="white" id="svg_38" d="m1332.20997,628.81a3.25,3.25 0 1 0 -6.38,-1.24l6.38,1.24z" stroke="rgba(254, 145, 16, 1)"/>
  <path fill="white" id="svg_39" d="m1142.38997,506.3a19.26,19.26 0 1 0 38.52,0a19.26,19.26 0 1 0 -38.52,0z" stroke="#e73635"/>
  <path fill="white" id="svg_40" d="m1217.93997,613.56l55.94,0l0,55.94l-55.94,0l0,-55.94z" stroke="rgba(254, 145, 16, 1)"/>
  <path id="svg_41" fill="rgba(254, 145, 16, 1)" d="m1296.95997,385.32a55.22,55.22 0 1 0 99.74,47.44l-99.74,-47.44z" stroke="null"/>
  <path id="svg_42" fill="rgba(28, 83, 142, 1)" d="m1380.78997,538.13l37.69,0l0,37.69l-37.69,0l0,-37.69z" stroke="null"/>
  <path id="svg_43" fill="#e73635" d="m1344.53997,253.05l15.81,0l0,12.18l-15.81,0l0,-12.18z" stroke="null"/>
  <path fill="white" id="svg_44" d="m1311.77997,340.32l23.78,0l0,23.78l-23.78,0l0,-23.78z" stroke="rgba(254, 145, 16, 1)"/>
  <path id="svg_45" fill="#e73635" d="m1381.38997,337.49a14.14,14.14 0 1 0 28.28,0a14.14,14.14 0 1 0 -28.28,0z" stroke="null"/>
  <path id="svg_46" fill="#e73635" d="m331.38997,447.49a14.14,14.14 0 1 0 28.28,0a14.14,14.14 0 1 0 -28.28,0z" stroke="null"/>
  <path fill="white" id="svg_47" d="m360.04997,395.16l10.14,0l0,4.71l-10.14,0l0,-4.71z" stroke="rgba(28, 83, 142, 1)"/>
  <path fill="white" id="svg_48" d="m277.26997,332.1l32.97,0l0,32.97l-32.97,0l0,-32.97z" stroke="rgba(28, 83, 142, 1)"/>
  <path id="svg_2" fill="rgba(254, 145, 16, 1)" d="m478.99997,284l35.85,0l0,38.08l-35.85,0l0,-38.08z" stroke="null"/>
  <path id="svg_58" fill="#e73635" d="m225.94771,34.72884l13.3,0l0,41.1l-13.3,0l0,-41.1z" stroke="null"/>
  <path id="svg_59" fill="#e73635" d="m1249.14992,159.36821l13.3,0l0,41.1l-13.3,0l0,-41.1z" stroke="null"/>
  <path id="svg_60" fill="#e73635" d="m783.92626,43.4246l13.3,0l0,41.1l-13.3,0l0,-41.1z" stroke="null"/>
  <path id="svg_61" fill="#e73635" d="m1321.61467,769.52139l13.3,0l0,41.1l-13.3,0l0,-41.1z" stroke="null"/>
  <path id="svg_62" fill="#e73635" d="m811.46285,752.12985l13.3,0l0,41.1l-13.3,0l0,-41.1z" stroke="null"/>
  <path id="svg_63" fill="#e73635" d="m221.59985,752.12986l13.3,0l0,41.1l-13.3,0l0,-41.1z" stroke="null"/>
  <path id="svg_64" fill="#e73635" d="m466.53069,840.53683l13.3,0l0,41.1l-13.3,0l0,-41.1z" stroke="null"/>
  <path fill="white" id="svg_65" d="m484.2065,106.36697l25.65,0l0,28.99l-25.65,0l0,-28.99z" stroke="rgba(28, 83, 142, 1)"/>
  <path fill="white" id="svg_66" d="m1084.21459,773.04268l25.65,0l0,28.99l-25.65,0l0,-28.99z" stroke="rgba(28, 83, 142, 1)"/>
  <path fill="white" id="svg_67" d="m369.71221,739.70887l25.65,0l0,28.99l-25.65,0l0,-28.99z" stroke="rgba(28, 83, 142, 1)"/>
  <path fill="white" id="svg_68" d="m990.4126,102.61125a39.82,39.82 0 1 0 79.64,0a39.82,39.82 0 1 0 -79.64,0z" stroke="rgba(254, 145, 16, 1)"/>
  <path fill="white" id="svg_69" d="m1174.47305,766.04045a39.82,39.82 0 1 0 79.64,0a39.82,39.82 0 1 0 -79.64,0z" stroke="rgba(254, 145, 16, 1)"/>
  <path fill="white" id="svg_70" d="m32.42862,219.65625a39.82,39.82 0 1 0 79.64,0a39.82,39.82 0 1 0 -79.64,0z" stroke="rgba(254, 145, 16, 1)"/>
  <path id="svg_71" fill="rgba(254, 145, 16, 1)" d="m367.40427,20.2283l35.85,0l0,38.08l-35.85,0l0,-38.08z" stroke="null"/>
  <path id="svg_72" fill="rgba(254, 145, 16, 1)" d="m1245.67697,10.08325l35.85,0l0,38.08l-35.85,0l0,-38.08z" stroke="null"/>
  <path id="svg_73" fill="rgba(254, 145, 16, 1)" d="m690.59703,836.1814l35.85,0l0,38.08l-35.85,0l0,-38.08z" stroke="null"/>
  <path id="svg_74" fill="rgba(254, 145, 16, 1)" d="m58.70444,746.3251l35.85,0l0,38.08l-35.85,0l0,-38.08z" stroke="null"/>
  <path id="svg_75" fill="rgba(254, 145, 16, 1)" d="m936.97714,791.25323l35.85,0l0,38.08l-35.85,0l0,-38.08z" stroke="null"/>
  <path fill="white" id="svg_76" d="m505.28413,749.95484l36.49,0l0,35.34l-36.49,0l0,-35.34z" stroke="#e73635"/>
  <path fill="white" id="svg_77" d="m290.78846,796.33228l36.49,0l0,35.34l-36.49,0l0,-35.34z" stroke="#e73635"/>
  <path fill="white" id="svg_78" d="m1332.83152,80.38056l36.49,0l0,35.34l-36.49,0l0,-35.34z" stroke="#e73635"/>
  <path id="svg_79" fill="rgba(28, 83, 142, 1)" d="m602.86267,95.18958a47.98,47.98 0 1 0 95.96,0a47.98,47.98 0 1 0 -95.96,0z" stroke="null"/>
  <path id="svg_80" fill="#e73635" d="m1142.98567,178.79017a14.14,14.14 0 1 0 28.28,0a14.14,14.14 0 1 0 -28.28,0z" stroke="null"/>
  <path id="svg_81" fill="#e73635" d="m338.62703,159.35496a14.14,14.14 0 1 0 28.28,0a14.14,14.14 0 1 0 -28.28,0z" stroke="null"/>
  <path id="svg_82" fill="#e73635" d="m132.82716,820.82786a14.14,14.14 0 1 0 28.28,0a14.14,14.14 0 1 0 -28.28,0z" stroke="null"/>
  <path transform="rotate(110.221 112.248 100.158)" id="svg_83" fill="rgba(254, 145, 16, 1)" d="m65.05932,60.67791a55.22,55.22 0 1 0 99.74,47.44l-99.74,-47.44z" stroke="null"/>
  <path fill="white" id="svg_84" d="m10.49068,32.38054a19.26,19.26 0 1 0 38.52,0a19.26,19.26 0 1 0 -38.52,0z" stroke="#e73635"/>
  <path fill="white" id="svg_85" d="m1408.57426,810.19907l13.46,0l0,13.46l-13.46,0l0,-13.46z" stroke="#e73635"/>
  <path fill="white" id="svg_86" d="m812.69997,151.65525a7.4,7.4 0 1 0 10.94,9.96l-10.94,-9.96z" stroke="#e73635"/>
  <path fill="white" id="svg_87" d="m804.0042,644.41553a7.4,7.4 0 1 0 10.94,9.96l-10.94,-9.96z" stroke="#e73635"/>
  <path fill="white" id="svg_88" d="m489.03721,208.20095l10.14,0l0,4.71l-10.14,0l0,-4.71z" stroke="rgba(28, 83, 142, 1)"/>
  <path fill="white" id="svg_89" d="m1191.94523,99.50381l10.14,0l0,4.71l-10.14,0l0,-4.71z" stroke="rgba(28, 83, 142, 1)"/>
  <path fill="white" id="svg_90" d="m1108.87868,37.41735l23.78,0l0,23.78l-23.78,0l0,-23.78z" stroke="rgba(254, 145, 16, 1)"/>
  <path fill="white" id="svg_91" d="m1368.30247,678.00573l23.78,0l0,23.78l-23.78,0l0,-23.78z" stroke="rgba(254, 145, 16, 1)"/>
  <path fill="white" id="svg_92" d="m1013.60132,879.08546a39.82,39.82 0 1 0 79.64,0a39.82,39.82 0 1 0 -79.64,0z" stroke="rgba(254, 145, 16, 1)"/>
 </g>
</svg>