<?xml version="1.0" encoding="UTF-8"?>
<svg preserveAspectRatio="none" version="1.1" viewBox="0 0 1440 560" xmlns="http://www.w3.org/2000/svg">
<g fill="none" mask="url(#b)">
<g mask="url(#a)">
<path d="m287.5 287.5h25 25m-225 0 25-25h25 25 25 25 25 25l25-25m300 25 25 25h25m-175-25 25-25h25 25l25-25m-525 75 25-25h25l25-25h25 25 25 25 25 25m175 0h25l25-25h25m-550 75h25 25 25 25 25 25l25 25h25 25 25 25l50-50h25 25 25l25-25h25 25l25 25h25 25 25 25 25 25" stroke="#d13" stroke-width="4.17"/>
<path d="m631.25 262.5a6.25 6.25 0 1 0 12.5 0 6.25 6.25 0 1 0-12.5 0zm-300 25a6.25 6.25 0 1 0 12.5 0 6.25 6.25 0 1 0-12.5 0zm-25-50a6.25 6.25 0 1 0 12.5 0 6.25 6.25 0 1 0-12.5 0zm350 50a6.25 6.25 0 1 0 12.5 0 6.25 6.25 0 1 0-12.5 0zm-75-75a6.25 6.25 0 1 0 12.5 0 6.25 6.25 0 1 0-12.5 0zm-300 25a6.25 6.25 0 1 0 12.5 0 6.25 6.25 0 1 0-12.5 0zm250-25a6.25 6.25 0 1 0 12.5 0 6.25 6.25 0 1 0-12.5 0z" fill="#d13"/>
<path d="m37.5 262.5h25m-75 0h25 25l25-25" stroke="#3a7cc3" stroke-width="4.17"/>
<path d="m56.25 237.5a6.25 6.25 0 1 0 12.5 0 6.25 6.25 0 1 0-12.5 0zm0 25a6.25 6.25 0 1 0 12.5 0 6.25 6.25 0 1 0-12.5 0z" fill="#3a7cc3"/>
<path d="m362.5 337.5 25-25h25 25 25m-150 25 25 25h25m-25-25 50-50h25m-125 50 25-25h25m-350 0h25 25 25 25 25 25l25 25h25 25 25 25 25 25 25 25 25" stroke="#3a7cc3" stroke-width="4.17"/>
<path d="m381.25 337.5a6.25 6.25 0 1 0 12.5 0 6.25 6.25 0 1 0-12.5 0zm75-25a6.25 6.25 0 1 0 12.5 0 6.25 6.25 0 1 0-12.5 0zm-100 50a6.25 6.25 0 1 0 12.5 0 6.25 6.25 0 1 0-12.5 0zm50-75a6.25 6.25 0 1 0 12.5 0 6.25 6.25 0 1 0-12.5 0zm-75 25a6.25 6.25 0 1 0 12.5 0 6.25 6.25 0 1 0-12.5 0z" fill="#3a7cc3"/>
<path d="m337.5 212.5 25 25h25m-100-25 25-25h25 25 25 25m-150 25 25-25m-275 50h25m100-25 25-25m-175 50h25l25-25h25 25 25 25 25 25 25 25 25 25 25 25 25 25 25 25 25" stroke="#3a7cc3" stroke-width="4.17"/>
<path d="m456.25 212.5a6.25 6.25 0 1 0 12.5 0 6.25 6.25 0 1 0-12.5 0zm-75 25a6.25 6.25 0 1 0 12.5 0 6.25 6.25 0 1 0-12.5 0zm25-50a6.25 6.25 0 1 0 12.5 0 6.25 6.25 0 1 0-12.5 0zm-125 0a6.25 6.25 0 1 0 12.5 0 6.25 6.25 0 1 0-12.5 0zm-250 50a6.25 6.25 0 1 0 12.5 0 6.25 6.25 0 1 0-12.5 0zm125-50a6.25 6.25 0 1 0 12.5 0 6.25 6.25 0 1 0-12.5 0z" fill="#3a7cc3"/>
<path d="m587.5 387.5 25 25h25m-125-25 50 50h25 25 25 25m-200-50 25-25m150 25 25-25m-100 25 25 25m-300-50h25m75 25 25-25h25 25l25-25h25 25m-550 0h25 25 25 25 25 25l25 25h25 25 25 25 25l25 25h25 25 25 25 25 25 25 25 25 25 25 25 25 25" stroke="#d13" stroke-width="4.17"/>
<path d="m656.25 387.5a6.25 6.25 0 1 0 12.5 0 6.25 6.25 0 1 0-12.5 0zm-25 25a6.25 6.25 0 1 0 12.5 0 6.25 6.25 0 1 0-12.5 0zm25 25a6.25 6.25 0 1 0 12.5 0 6.25 6.25 0 1 0-12.5 0zm-175-75a6.25 6.25 0 1 0 12.5 0 6.25 6.25 0 1 0-12.5 0zm175 0a6.25 6.25 0 1 0 12.5 0 6.25 6.25 0 1 0-12.5 0zm-75 50a6.25 6.25 0 1 0 12.5 0 6.25 6.25 0 1 0-12.5 0zm-275-50a6.25 6.25 0 1 0 12.5 0 6.25 6.25 0 1 0-12.5 0zm225-25a6.25 6.25 0 1 0 12.5 0 6.25 6.25 0 1 0-12.5 0z" fill="#d13"/>
<path d="m312.5 162.5 50-50m50 50 25-25h25m-300 25 25-25h25 25 25m200 25h25 25 25m-475 25h25 25 25m250-25 50-50h25l25-25m-500 125h25l25-25h25l25-25h25 25 25 25 25 25 25 25 25 25 25 25 25 25 25l25-25h25 25 25 25" stroke="#d13" stroke-width="4.17"/>
<path d="m581.25 137.5a6.25 6.25 0 1 0 12.5 0 6.25 6.25 0 1 0-12.5 0zm-225-25a6.25 6.25 0 1 0 12.5 0 6.25 6.25 0 1 0-12.5 0zm100 25a6.25 6.25 0 1 0 12.5 0 6.25 6.25 0 1 0-12.5 0zm-200 0a6.25 6.25 0 1 0 12.5 0 6.25 6.25 0 1 0-12.5 0zm275 25a6.25 6.25 0 1 0 12.5 0 6.25 6.25 0 1 0-12.5 0zm-400 25a6.25 6.25 0 1 0 12.5 0 6.25 6.25 0 1 0-12.5 0zm350-100a6.25 6.25 0 1 0 12.5 0 6.25 6.25 0 1 0-12.5 0z" fill="#d13"/>
<path d="m112.5 362.5 25 25m225 25 25 25m-300-75 25 25m-50-25 25 25m-100-25h25 25 25 25 25 25l25 25h25 25 25 25 25l25 25h25 25 25" stroke="#3a7cc3" stroke-width="4.17"/>
<path d="m381.25 412.5a6.25 6.25 0 1 0 12.5 0 6.25 6.25 0 1 0-12.5 0zm-250-25a6.25 6.25 0 1 0 12.5 0 6.25 6.25 0 1 0-12.5 0zm250 50a6.25 6.25 0 1 0 12.5 0 6.25 6.25 0 1 0-12.5 0zm-275-50a6.25 6.25 0 1 0 12.5 0 6.25 6.25 0 1 0-12.5 0zm-25 0a6.25 6.25 0 1 0 12.5 0 6.25 6.25 0 1 0-12.5 0z" fill="#3a7cc3"/>
<path d="m-12.5 187.5h25l25-25h25l25-25" stroke="#d13" stroke-width="4.17"/>
<path d="m81.25 137.5a6.25 6.25 0 1 0 12.5 0 6.25 6.25 0 1 0-12.5 0z" fill="#d13"/>
<path d="m187.5 412.5 25 25h25m-175-25 25 25h25m150-25 75 75m-350-100h25 25l25 25h25 25 25 25 25 25 25 25 25l50 50" stroke="#3a7cc3" stroke-width="4.17"/>
<path d="m331.25 462.5a6.25 6.25 0 1 0 12.5 0 6.25 6.25 0 1 0-12.5 0zm-100-25a6.25 6.25 0 1 0 12.5 0 6.25 6.25 0 1 0-12.5 0zm-125 0a6.25 6.25 0 1 0 12.5 0 6.25 6.25 0 1 0-12.5 0zm225 50a6.25 6.25 0 1 0 12.5 0 6.25 6.25 0 1 0-12.5 0z" fill="#3a7cc3"/>
<path d="m87.5 112.5 25-25h25 25m-175 75h25l25-25h25l25-25h25" stroke="#3a7cc3" stroke-width="4.17"/>
<path d="m106.25 112.5a6.25 6.25 0 1 0 12.5 0 6.25 6.25 0 1 0-12.5 0zm50-25a6.25 6.25 0 1 0 12.5 0 6.25 6.25 0 1 0-12.5 0z" fill="#3a7cc3"/>
</g>
</g>
<defs>
<mask id="b">
<rect width="1440" height="560" fill="#fff"/>
</mask>
<mask id="a">
<rect width="1440" height="560" fill="#fff"/>
<path d="m634.37 262.5a3.13 3.13 0 1 0 6.26 0 3.13 3.13 0 1 0-6.26 0zm-300 25a3.13 3.13 0 1 0 6.26 0 3.13 3.13 0 1 0-6.26 0zm-25-50a3.13 3.13 0 1 0 6.26 0 3.13 3.13 0 1 0-6.26 0zm350 50a3.13 3.13 0 1 0 6.26 0 3.13 3.13 0 1 0-6.26 0zm-75-75a3.13 3.13 0 1 0 6.26 0 3.13 3.13 0 1 0-6.26 0zm-300 25a3.13 3.13 0 1 0 6.26 0 3.13 3.13 0 1 0-6.26 0zm250-25a3.13 3.13 0 1 0 6.26 0 3.13 3.13 0 1 0-6.26 0z"/>
<path d="m59.37 237.5a3.13 3.13 0 1 0 6.26 0 3.13 3.13 0 1 0-6.26 0zm0 25a3.13 3.13 0 1 0 6.26 0 3.13 3.13 0 1 0-6.26 0z"/>
<path d="m384.37 337.5a3.13 3.13 0 1 0 6.26 0 3.13 3.13 0 1 0-6.26 0zm75-25a3.13 3.13 0 1 0 6.26 0 3.13 3.13 0 1 0-6.26 0zm-100 50a3.13 3.13 0 1 0 6.26 0 3.13 3.13 0 1 0-6.26 0zm50-75a3.13 3.13 0 1 0 6.26 0 3.13 3.13 0 1 0-6.26 0zm-75 25a3.13 3.13 0 1 0 6.26 0 3.13 3.13 0 1 0-6.26 0z"/>
<path d="m459.37 212.5a3.13 3.13 0 1 0 6.26 0 3.13 3.13 0 1 0-6.26 0zm-75 25a3.13 3.13 0 1 0 6.26 0 3.13 3.13 0 1 0-6.26 0zm25-50a3.13 3.13 0 1 0 6.26 0 3.13 3.13 0 1 0-6.26 0zm-125 0a3.13 3.13 0 1 0 6.26 0 3.13 3.13 0 1 0-6.26 0zm-250 50a3.13 3.13 0 1 0 6.26 0 3.13 3.13 0 1 0-6.26 0zm125-50a3.13 3.13 0 1 0 6.26 0 3.13 3.13 0 1 0-6.26 0z"/>
<path d="m659.37 387.5a3.13 3.13 0 1 0 6.26 0 3.13 3.13 0 1 0-6.26 0zm-25 25a3.13 3.13 0 1 0 6.26 0 3.13 3.13 0 1 0-6.26 0zm25 25a3.13 3.13 0 1 0 6.26 0 3.13 3.13 0 1 0-6.26 0zm-175-75a3.13 3.13 0 1 0 6.26 0 3.13 3.13 0 1 0-6.26 0zm175 0a3.13 3.13 0 1 0 6.26 0 3.13 3.13 0 1 0-6.26 0zm-75 50a3.13 3.13 0 1 0 6.26 0 3.13 3.13 0 1 0-6.26 0zm-275-50a3.13 3.13 0 1 0 6.26 0 3.13 3.13 0 1 0-6.26 0zm225-25a3.13 3.13 0 1 0 6.26 0 3.13 3.13 0 1 0-6.26 0z"/>
<path d="m584.37 137.5a3.13 3.13 0 1 0 6.26 0 3.13 3.13 0 1 0-6.26 0zm-225-25a3.13 3.13 0 1 0 6.26 0 3.13 3.13 0 1 0-6.26 0zm100 25a3.13 3.13 0 1 0 6.26 0 3.13 3.13 0 1 0-6.26 0zm-200 0a3.13 3.13 0 1 0 6.26 0 3.13 3.13 0 1 0-6.26 0zm275 25a3.13 3.13 0 1 0 6.26 0 3.13 3.13 0 1 0-6.26 0zm-400 25a3.13 3.13 0 1 0 6.26 0 3.13 3.13 0 1 0-6.26 0zm350-100a3.13 3.13 0 1 0 6.26 0 3.13 3.13 0 1 0-6.26 0z"/>
<path d="m384.37 412.5a3.13 3.13 0 1 0 6.26 0 3.13 3.13 0 1 0-6.26 0zm-250-25a3.13 3.13 0 1 0 6.26 0 3.13 3.13 0 1 0-6.26 0zm250 50a3.13 3.13 0 1 0 6.26 0 3.13 3.13 0 1 0-6.26 0zm-275-50a3.13 3.13 0 1 0 6.26 0 3.13 3.13 0 1 0-6.26 0zm-25 0a3.13 3.13 0 1 0 6.26 0 3.13 3.13 0 1 0-6.26 0z"/>
<path d="m84.37 137.5a3.13 3.13 0 1 0 6.26 0 3.13 3.13 0 1 0-6.26 0z"/>
<path d="m334.37 462.5a3.13 3.13 0 1 0 6.26 0 3.13 3.13 0 1 0-6.26 0zm-100-25a3.13 3.13 0 1 0 6.26 0 3.13 3.13 0 1 0-6.26 0zm-125 0a3.13 3.13 0 1 0 6.26 0 3.13 3.13 0 1 0-6.26 0zm225 50a3.13 3.13 0 1 0 6.26 0 3.13 3.13 0 1 0-6.26 0z"/>
<path d="m109.37 112.5a3.13 3.13 0 1 0 6.26 0 3.13 3.13 0 1 0-6.26 0zm50-25a3.13 3.13 0 1 0 6.26 0 3.13 3.13 0 1 0-6.26 0z"/>
</mask>
</defs>
</svg>
